<?xml version="1.0" encoding="utf-8"?>
<!-- Generator: Adobe Illustrator 24.3.0, SVG Export Plug-In . SVG Version: 6.00 Build 0)  -->
<svg version="1.1" id="图层_1" xmlns="http://www.w3.org/2000/svg" xmlns:xlink="http://www.w3.org/1999/xlink" x="0px" y="0px"
	 viewBox="0 0 92.6 92.6" style="enable-background:new 0 0 92.6 92.6;" xml:space="preserve">
<style type="text/css">
	.st0{fill:#E60012;}
	.st1{fill:#FFFFFF;}
</style>
<g>
	<path class="st0" d="M46.3,0C20.73,0,0,20.73,0,46.3c0,25.57,20.73,46.3,46.3,46.3c25.57,0,46.3-20.73,46.3-46.3
		C92.6,20.73,71.87,0,46.3,0z M46.3,60.82c-16.69,0-30.22-13.53-30.22-30.22c0-16.69,13.53-30.22,30.22-30.22
		c16.69,0,30.22,13.53,30.22,30.22C76.52,47.29,62.99,60.82,46.3,60.82z"/>
	<circle cx="46.3" cy="30.6" r="24.65"/>
	<circle class="st1" cx="56.22" cy="19.29" r="9.62"/>
</g>
</svg>
