<svg xmlns="http://www.w3.org/2000/svg" viewBox="0 0 1080 1296"><g id="Layer_1" data-name="Layer 1"><path d="M641.05,427.08h-4.29v4.54H609.62V400.19h27v4.36h4.48v9h-4.36v4.48h4.36Zm-9-13.51v-8.83H618.64v8.83Zm0,13.51v-9H618.64v9Z"/><path d="M676.33,431.37H644.52V399.62h31.81V404H653.67v9h13.57v4.67H653.67v9.09h22.66Z"/><path d="M526,404.55h-8.83v27.07h-9V404.74H499v-4.55h27Z"/><path d="M561.29,431.62h-8.9v-13.5H539v13.5h-9.16V400.19h8.9v13.38h13.51V400.19h9Z"/><path d="M596.57,431.37H564.76V399.62h31.81V404H573.91v9h13.57v4.67H573.91v9.09h22.66Z"/><path d="M425.77,467.76h-8.9v-4.29H408v4.29h-4.61v13.45h4.42v4.6h9v-4.35h9v4.35h-4.29v4.55H403.36v-4.29h-4.48v-4.61h-4.54v-13.7h4.29v-4.29h4.54v-4.54h18.12v4.29h4.48Z"/><path d="M460.48,490.36h-8.9V476.85H438.2v13.51h-9.15V458.93H438v13.38h13.51V458.93h9Z"/><path d="M495.2,490.36h-9v-9H472.79v9h-9V468h4.29v-4.48h4.61v-4.54h13.5v4.29h4.55v4.48h4.48Zm-9-13.51V467.7h-4.48v-4.23h-4.61V468h-4.29v8.9Z"/><path d="M529.91,490.36H521v-4.29h-4.48v-4.55H512v-4.61h-4.36v13.45h-9.15V458.93h8.9v4.29H512v4.48h4.54v4.61h4.36V458.93h9Z"/><path d="M564.63,490.36H542.22v-4.29h-4.48v-4.55h-4.55V467.76h4.29v-4.48H542v-4.35h22.6v4.35h-17.8v4.48h-4.61v13.45h4.42v4.6h9V477h-4.36V472.5h13.39Z"/><path d="M599.91,490.11H568.1V458.36h31.81v4.42H577.25v9h13.57v4.67H577.25v9.09h22.66Z"/><path d="M389,529h-8.83v27.08h-9V529.22h-9.09v-4.55h27Z"/><path d="M423.5,556.11h-8.9V542.6H401.22v13.51h-9.15V524.67H401v13.38h13.5V524.67h9Z"/><path d="M458.21,556.11h-9v-9H435.81v9h-9V533.7h4.29v-4.48h4.61v-4.55h13.51V529h4.54v4.48h4.48Zm-9-13.51v-9.15h-4.48v-4.23H440.1v4.48h-4.29v8.9Z"/><path d="M486.17,529h-8.83v27.08h-9V529.22h-9.09v-4.55h26.95Z"/><path d="M359.87,605.56h-4.29V610H351v13.57h-9.15V610.29h-4.35v-4.55h-4.55V592.17h8.9v13.39h9V592.17h9Z"/><path d="M396.86,619.06h-4.29v4.55H370v-4.3h-4.54V596.72h4.29v-4.55h22.66v4.3h4.48Zm-9,0V596.72H374.45v22.34Z"/><path d="M431.57,619.06h-4.29v4.55H404.69v-4.3h-4.55V592.17H409v26.89h13.51V592.17h9Z"/><path d="M346.38,690.23h-8.9v-4.29H333v-4.67h-4.42v4.42H324.1v4.54h-9.16V658.8h8.9v13.38h4.55v-4.36H333v4.36h4.35V658.8h9Z"/><path d="M379.77,690.23h-27v-4.42h8.9V663.34h-8.9V658.8h27v4.35h-8.9v22.54h8.9Z"/><path d="M415.8,685.69h-4.29v4.54H388.92v-4.29h-4.55v-4.55h9v4.3h13.38v-8.78H388.92v-4.54h-4.55v-9h4.29V658.8h18.12v4.29h4.54v4.54h-8.9v-4.29h-9v8.71h17.92v4.61h4.48Z"/><path d="M450.52,690.23h-8.9V676.72H428.24v13.51h-9.15V658.8H428v13.38h13.5V658.8h9Z"/><path d="M357.69,729.78h-8.83v27.08h-9V730h-9.09v-4.55h26.95Z"/><path d="M393.9,752.31h-4.29v4.55H367v-4.3h-4.54V730h4.29v-4.55h22.66v4.29h4.48Zm-9,0V730H371.49v22.34Z"/><path d="M378.84,818.94h-4.3v4.54H352v-4.29H347.4v-4.55h9v4.3h13.38v-8.78H352v-4.54H347.4v-9h4.29v-4.54h18.12v4.29h4.54v4.54h-8.9v-4.29h-9v8.71h17.92v4.61h4.49Z"/><path d="M414.12,823.23H382.31V791.48h31.81v4.42H391.46v9H405v4.67H391.46v9.09h22.66Z"/><path d="M448.83,823.23H417V791.48h31.81v4.42H426.17v9h13.57v4.67H426.17v9.09h22.66Z"/><path d="M427.49,884H400.54v-4.42h8.9V857.08h-8.9v-4.55h26.95v4.36h-8.9v22.53h8.9Z"/><path d="M463.53,884h-8.9v-4.29h-4.48v-4.55H445.6v-4.61h-4.35V884H432.1V852.53H441v4.3h4.6v4.48h4.55v4.61h4.35V852.53h9Z"/><path d="M501.32,856.89h-8.84V884h-9V857.08h-9.09v-4.55h26.95Z"/><path d="M536.65,884h-8.9V870.46H514.37V884h-9.15V852.53h8.9v13.39h13.51V852.53h9Z"/><path d="M571.93,883.71H540.12V852h31.81v4.41H549.27v9h13.57v4.67H549.27v9.09h22.66Z"/><path d="M540.52,946.21h-8.9v-4.29h-4.48v-4.67h-4.42v4.41h-4.48v4.55h-9.15V914.78H518v13.38h4.54V923.8h4.61v4.36h4.35V914.78h9Z"/><path d="M575.23,941.66h-4.29v4.55H548.35v-4.29H543.8v-22.6h4.29v-4.54h22.66v4.29h4.48Zm-9,0V919.32H552.83v22.34Z"/><path d="M610,932.7h-9v4.36h4.55v4.6H610v4.55H596.57V942h-4.48v-4.73h-4.55v9h-9V914.78h27v4.35H610Zm-9-4.54v-8.84H587.54V932.7h9v-4.54Z"/><path d="M639.66,946.21H612.71V914.78h8.9v26.88h18Z"/><path d="M674.12,937.18h-4.3v4.48h-4.48v4.55H642.68V914.78h22.41v4.29h4.54v4.48h4.49Zm-9,0V923.55h-4.48v-4.23h-8.9v22.34h9.09v-4.48Z"/><rect x="680" y="458" width="32" height="32"/><rect x="726" y="458" width="32" height="32"/><rect x="680" y="852" width="32" height="32"/><rect x="726" y="852" width="32" height="32"/></g></svg>