<svg xmlns="http://www.w3.org/2000/svg" viewBox="0 0 1080 1296"><g id="Layer_1" data-name="Layer 1"><path d="M258.3,610.79l-27.73-87.12H218V505.6h43.62v18.07H248l19.81,62.43,19.78-62.43H276.33V505.6h50v18.07H315l19.78,62.43,19.85-62.43H340.36V505.6h46.71v18.07H372.22l-27.76,87.12H325.34L301.61,536l-24.16,74.83Z"/><path d="M387.72,557.34q0-23.94,15.82-39.28t38.59-15.34a54,54,0,0,1,38.37,15.12q16,15.13,16,39.5t-16,39.55q-16,15.18-38.43,15.18-23.1,0-38.75-15.39T387.72,557.34Zm21.48-.05q0,15.32,9.57,25.11a32.76,32.76,0,0,0,46.82-.11q9.46-9.9,9.46-25t-9.62-25.06a31.37,31.37,0,0,0-23.3-9.84q-14.33,0-23.63,10.05T409.2,557.29Z"/><path d="M530.53,591V523.67H509.69V505.6h37.09v23.31a41.12,41.12,0,0,1,9.51-15.08,30.43,30.43,0,0,1,12.88-7.91Q576,504,587.72,504h5.35v20.52H589q-15.5,0-23.14,3.1a20.83,20.83,0,0,0-11.33,11.28q-3.69,8.18-3.69,29.34V591H573.4v18.07H509.69V591Z"/><path d="M614.55,591V478.45H596.17V460.38h38.69V591h15.82v18.07H596.17V591Z"/><path d="M792,591v18.07H753.09V593.9q-15.18,16.89-37,16.89A51.37,51.37,0,0,1,680.62,597q-15.29-13.79-15.29-39.23T681,517.47q15.72-14.76,35.49-14.75,21,0,36.56,16.67V478.45H733.21V460.38H773.4V591ZM687,557.23q0,17.12,9.67,26.3a32.43,32.43,0,0,0,23.15,9.19q13,0,23.14-9.67t10.1-26.78q0-17.21-10.31-26a34.81,34.81,0,0,0-23.15-8.77,30.14,30.14,0,0,0-23.19,10.32Q687,542.16,687,557.23Z"/><path d="M828,530.72v-27h27v27Zm0,79.13v-27h27v27Z"/><path d="M173.91,753.77v11.08H152.15v-7.74q-9.06,8.79-20.19,8.79a22,22,0,0,1-15.05-5.64,19.36,19.36,0,0,1,.4-29.1,24.22,24.22,0,0,1,16.35-5.84,31.41,31.41,0,0,1,17.24,5.38v-6.29a23.73,23.73,0,0,0-.92-7.48,9.58,9.58,0,0,0-4.29-4.72,16.59,16.59,0,0,0-8.82-2.09q-9.37,0-13.57,7.47l-11.93-3.15q7.93-14.81,27.4-14.81a35.49,35.49,0,0,1,12.36,1.93,18.21,18.21,0,0,1,7.77,5,16.48,16.48,0,0,1,3.44,6.59,51.35,51.35,0,0,1,.88,11.28v29.36Zm-23-12.52Q142.85,735,134.58,735a12.76,12.76,0,0,0-8.65,3,9.85,9.85,0,0,0-3.48,7.8,10.1,10.1,0,0,0,3,7.48,11.26,11.26,0,0,0,8.29,3q9,0,17.11-7.6Z"/><path d="M202.82,701.4v7.67q12-8.66,21.89-8.66a17,17,0,0,1,10.19,2.92,13.44,13.44,0,0,1,5.28,7.15q1.24,4.23,1.24,12.35v30.94h10.69v11.08H229V723.36c0-4.81-.72-7.94-2.16-9.41a7.21,7.21,0,0,0-5.31-2.2q-8.26,0-18.68,8.07v33.95h10.94v11.08H179.22V753.77h11.14V712.48H179.22V701.4Z"/><path d="M336.14,753.77v11.08H312.28v-9.31Q303,765.91,289.6,765.9a31.48,31.48,0,0,1-21.76-8.46q-9.37-8.45-9.37-24.05t9.63-24.72q9.64-9,21.76-9,12.86,0,22.42,10.22v-25.1H300.09V673.67h24.65v80.1Zm-64.37-20.71q0,10.49,5.94,16.12a20.3,20.3,0,0,0,28.38-.29q6.2-5.94,6.19-16.42T306,716.54a21.39,21.39,0,0,0-14.19-5.38,18.5,18.5,0,0,0-14.23,6.33A22.29,22.29,0,0,0,271.77,733.06Z"/><path d="M360.85,707.89V696h8.84V685.58L383,673.38V696h12.56v11.86H383v33q0,7.92.88,9.78t4.38,1.86a20,20,0,0,0,7.3-1.4v12.13a30.29,30.29,0,0,1-10.24,1.83q-6.1,0-9.9-2.7a11.5,11.5,0,0,1-4.76-6.77q-1-4.07-1-14V707.89Z"/><path d="M405.33,730q0-15.71,10.38-25.77A35,35,0,0,1,441,694.14a35.4,35.4,0,0,1,25.18,9.93Q476.74,714,476.73,730t-10.48,26a35.32,35.32,0,0,1-25.22,10q-15.15,0-25.43-10.1T405.33,730Zm14.1,0q0,10,6.27,16.48a21.51,21.51,0,0,0,30.73-.07q6.21-6.5,6.21-16.41t-6.32-16.44A20.57,20.57,0,0,0,441,707.05a20.18,20.18,0,0,0-15.5,6.6A23.09,23.09,0,0,0,419.43,730Z"/><path d="M549.57,1056.07V726.3H495.71V673.38H609.08v382.69h46.35V1109H495.71v-52.93Z"/><path d="M615.85,719.64q0-20.28,13.4-33.27t32.68-13a45.71,45.71,0,0,1,32.5,12.81Q708,699,708,719.64t-13.54,33.49A45.56,45.56,0,0,1,661.93,766q-19.56,0-32.82-13T615.85,719.64Zm18.2,0q0,13,8.1,21.26a27.72,27.72,0,0,0,39.65-.09q8-8.37,8-21.17t-8.15-21.22A26.56,26.56,0,0,0,661.93,690a26.06,26.06,0,0,0-20,8.52Q634,707.07,634.05,719.59Z"/><path d="M751.4,764.9l-28.66-73.78H707.28v-15.3h44.09v15.3H740l18.87,49.7,18.91-49.7H765.58v-15.3H808.4v15.3H794.93L767,764.9Z"/><path d="M902.91,724H829.22q1.63,12.13,9.6,19.64t20.36,7.52q18,0,28.52-14.49l15.21,6.7a45.84,45.84,0,0,1-19.28,17.07A57.75,57.75,0,0,1,858.82,766q-20.1,0-34.35-12.53t-14.26-33.81q0-20.19,13.9-33.23t31.91-13q17.64,0,32,12.72T902.91,724Zm-17.74-12.49q-1.81-9.24-9.6-16.7a26.55,26.55,0,0,0-19.1-7.47,25.16,25.16,0,0,0-17.65,6.74,28.83,28.83,0,0,0-9,17.43Z"/><path d="M932.88,759.66V738.31H927.8v-5.72h11.52v27.07h5.08v5.72H927.8v-5.72ZM932,721.44a3.81,3.81,0,0,1,1.1-2.71,3.69,3.69,0,0,1,2.8-1.15,3.81,3.81,0,0,1,2.74,1.11,3.68,3.68,0,0,1,1.15,2.75,3.9,3.9,0,0,1-6.66,2.74A3.79,3.79,0,0,1,932,721.44Z"/><path d="M947.89,738.31v-5.72h4.27v-5.05l6.44-5.9v11h6.07v5.72H958.6v15.93A15.15,15.15,0,0,0,959,759c.29.6,1,.9,2.12.9a9.46,9.46,0,0,0,3.53-.68V765a14.63,14.63,0,0,1-4.95.89,8,8,0,0,1-4.78-1.31,5.52,5.52,0,0,1-2.3-3.27,32.61,32.61,0,0,1-.48-6.78V738.31Z"/><path d="M218,470.9v-3.61h2.69v-3.18l4.06-3.71v6.89h3.82v3.61h-3.82v10a9.53,9.53,0,0,0,.26,3c.18.38.62.57,1.34.57a6,6,0,0,0,2.22-.43v3.69a9.26,9.26,0,0,1-3.12.56,5.13,5.13,0,0,1-3-.82,3.52,3.52,0,0,1-1.45-2.06,20.73,20.73,0,0,1-.3-4.27V470.9Z"/><path d="M235,484.34V470.9h-4.16v-3.61h7.4v4.65a8.29,8.29,0,0,1,1.9-3,6.16,6.16,0,0,1,2.57-1.58,14.5,14.5,0,0,1,3.71-.38h1.06v4.1h-.81a13.12,13.12,0,0,0-4.62.61,4.17,4.17,0,0,0-2.26,2.26,15.89,15.89,0,0,0-.74,5.85v4.55h4.51V488H230.79v-3.61Z"/><path d="M272.89,484.34V488h-7.62v-2.37a11.45,11.45,0,0,1-6.83,2.71,6,6,0,0,1-3.42-.91,4.28,4.28,0,0,1-1.8-2.35,17,17,0,0,1-.45-4.64V470.9h-2.93v-3.61h7v12.59A24.25,24.25,0,0,0,257,483a2,2,0,0,0,.75,1.3,2.32,2.32,0,0,0,1.56.52c1.87,0,3.88-.9,6-2.69V470.9h-3.65v-3.61h7.71v17Z"/><path d="M296.75,478.64H279.38a7.53,7.53,0,0,0,2.26,4.63,6.71,6.71,0,0,0,4.8,1.77,7.85,7.85,0,0,0,6.72-3.41l3.59,1.58a10.74,10.74,0,0,1-4.55,4,13.5,13.5,0,0,1-5.84,1.31,11.84,11.84,0,0,1-8.1-3,10.08,10.08,0,0,1-3.36-8,10.25,10.25,0,0,1,3.27-7.83,10.69,10.69,0,0,1,7.53-3.08,11.1,11.1,0,0,1,7.54,3Q296.62,472.71,296.75,478.64Zm-4.18-2.94a7.44,7.44,0,0,0-2.26-3.94A6.3,6.3,0,0,0,285.8,470a5.93,5.93,0,0,0-4.16,1.59,6.76,6.76,0,0,0-2.11,4.11Z"/><path d="M313.93,484.34V461.87h-3.74v-3.61H318v11.4q3.66-3,6.94-3a6.11,6.11,0,0,1,3.37.86,4.3,4.3,0,0,1,1.8,2.25,13.23,13.23,0,0,1,.48,4.08v10.44h3.53V488h-7.58V475.31a20.56,20.56,0,0,0-.15-3.13,2.1,2.1,0,0,0-.82-1.31,2.56,2.56,0,0,0-1.59-.51q-2.35,0-6,2.67v11.31h3.59V488H310.19v-3.61Z"/><path d="M357.78,478.64H340.41a7.53,7.53,0,0,0,2.26,4.63,6.75,6.75,0,0,0,4.81,1.77,7.85,7.85,0,0,0,6.72-3.41l3.58,1.58a10.71,10.71,0,0,1-4.54,4,13.57,13.57,0,0,1-5.85,1.31,11.84,11.84,0,0,1-8.1-3,10.08,10.08,0,0,1-3.36-8,10.22,10.22,0,0,1,3.28-7.83,10.67,10.67,0,0,1,7.52-3.08,11.08,11.08,0,0,1,7.54,3Q357.66,472.71,357.78,478.64Zm-4.18-2.94a7.37,7.37,0,0,0-2.26-3.94,6.29,6.29,0,0,0-4.5-1.76,6,6,0,0,0-4.17,1.59,6.82,6.82,0,0,0-2.11,4.11Z"/><path d="M364.53,484.34V470.9h-4.16v-3.61h7.4v4.65a8.29,8.29,0,0,1,1.9-3,6.16,6.16,0,0,1,2.57-1.58,14.41,14.41,0,0,1,3.7-.38H377v4.1h-.81a13.12,13.12,0,0,0-4.62.61,4.17,4.17,0,0,0-2.26,2.26,15.89,15.89,0,0,0-.74,5.85v4.55h4.5V488H360.37v-3.61Z"/><path d="M377.54,477.62a10.5,10.5,0,0,1,3.16-7.85,10.68,10.68,0,0,1,7.71-3.06,10.8,10.8,0,0,1,7.66,3,11.34,11.34,0,0,1,0,15.78,10.76,10.76,0,0,1-7.67,3,10.6,10.6,0,0,1-10.87-10.92Zm4.29,0a6.87,6.87,0,0,0,1.91,5,6.3,6.3,0,0,0,4.67,1.95,6.2,6.2,0,0,0,4.68-2,7.51,7.51,0,0,0,0-10,6.26,6.26,0,0,0-4.65-2,6.15,6.15,0,0,0-4.72,2A7,7,0,0,0,381.83,477.61Z"/><path d="M405.56,484.34V470.9h-3.2v-3.61h7.26v17h3.2V488H402.36v-3.61ZM405,460.27a2.39,2.39,0,0,1,.69-1.71,2.34,2.34,0,0,1,1.76-.73,2.39,2.39,0,0,1,1.73.71,2.33,2.33,0,0,1,.73,1.73,2.46,2.46,0,0,1-4.2,1.73A2.41,2.41,0,0,1,405,460.27Z"/><path d="M415.49,488v-7.09h3.62v.68a3.38,3.38,0,0,0,1.57,2.39,5.63,5.63,0,0,0,3.26.94,6.13,6.13,0,0,0,3.13-.68,2.11,2.11,0,0,0,1.18-1.9,1.87,1.87,0,0,0-1-1.73,13.15,13.15,0,0,0-3.86-1q-4.26-.72-6.09-2.33a5.34,5.34,0,0,1-1.82-4.18,5.52,5.52,0,0,1,2-4.32,7.66,7.66,0,0,1,5.23-1.74,10.05,10.05,0,0,1,5,1.2v-.88h3.6v6.85h-3.6v-1.26a5.36,5.36,0,0,0-4.78-2.54,4.67,4.67,0,0,0-2.64.69,2.14,2.14,0,0,0-1,1.85,1.6,1.6,0,0,0,.95,1.61,19.16,19.16,0,0,0,4.08.93,21.35,21.35,0,0,1,4.55,1.09,5.73,5.73,0,0,1,2.55,2.1,5.85,5.85,0,0,1,1,3.4,5.46,5.46,0,0,1-2.21,4.58,9.14,9.14,0,0,1-5.73,1.7,9,9,0,0,1-5.4-1.51V488Z"/><path d="M438.56,484.34V470.9h-3.44v-3.61h7.49v2.6a11.59,11.59,0,0,1,7.18-2.92,4.87,4.87,0,0,1,4.88,3.22q4-3.22,7.51-3.22a5.71,5.71,0,0,1,3.3.88,4.36,4.36,0,0,1,1.74,2.24,13.94,13.94,0,0,1,.44,4v10.24h3.61V488h-7.66V474.82a13.36,13.36,0,0,0-.16-2.53,2,2,0,0,0-.81-1.21,2.59,2.59,0,0,0-1.57-.48q-2.61,0-5.91,2.66v11.08h3.54V488h-7.6V474.44a5.65,5.65,0,0,0-.58-2.94,2.2,2.2,0,0,0-2-.9c-1.53,0-3.51.89-5.92,2.66v11.08h3.63V488H434.86v-3.61Z"/><path d="M487.08,484.34V470.9h-3.2v-3.61h7.26v17h3.2V488H483.88v-3.61Zm-.57-24.07a2.39,2.39,0,0,1,.69-1.71,2.34,2.34,0,0,1,1.76-.73,2.39,2.39,0,0,1,1.73.71,2.33,2.33,0,0,1,.73,1.73,2.46,2.46,0,0,1-4.2,1.73A2.41,2.41,0,0,1,486.51,460.27Z"/><path d="M504.07,467.29v2.5Q508,467,511.2,467a5.55,5.55,0,0,1,3.32.95,4.38,4.38,0,0,1,1.71,2.32,15.14,15.14,0,0,1,.41,4v10.07h3.48V488h-7.54V474.44c0-1.57-.23-2.59-.7-3.06a2.33,2.33,0,0,0-1.73-.72q-2.68,0-6.08,2.63v11h3.56V488H496.39v-3.61H500V470.9h-3.63v-3.61Z"/><path d="M532.52,470.9v-3.61h2.69v-3.18l4-3.71v6.89h3.82v3.61h-3.82v10a9.4,9.4,0,0,0,.27,3c.17.38.62.57,1.33.57a6,6,0,0,0,2.22-.43v3.69a9.26,9.26,0,0,1-3.12.56,5.09,5.09,0,0,1-3-.82,3.53,3.53,0,0,1-1.46-2.06,21.7,21.7,0,0,1-.29-4.27V470.9Z"/><path d="M549,484.34V461.87h-3.73v-3.61h7.79v11.4q3.64-3,6.93-3a6.08,6.08,0,0,1,3.37.86,4.27,4.27,0,0,1,1.81,2.25,13.23,13.23,0,0,1,.48,4.08v10.44h3.52V488H561.6V475.31a20.56,20.56,0,0,0-.15-3.13,2.1,2.1,0,0,0-.82-1.31,2.56,2.56,0,0,0-1.59-.51q-2.34,0-6,2.67v11.31h3.58V488H545.28v-3.61Z"/><path d="M592.87,478.64H575.5a7.48,7.48,0,0,0,2.26,4.63,6.71,6.71,0,0,0,4.8,1.77,7.85,7.85,0,0,0,6.72-3.41l3.59,1.58a10.8,10.8,0,0,1-4.55,4,13.51,13.51,0,0,1-5.85,1.31,11.83,11.83,0,0,1-8.09-3,10.06,10.06,0,0,1-3.37-8,10.26,10.26,0,0,1,3.28-7.83,10.67,10.67,0,0,1,7.52-3.08,11.11,11.11,0,0,1,7.55,3Q592.74,472.71,592.87,478.64Zm-4.19-2.94a7.31,7.31,0,0,0-2.26-3.94,6.26,6.26,0,0,0-4.5-1.76,5.93,5.93,0,0,0-4.16,1.59,6.76,6.76,0,0,0-2.11,4.11Z"/><path d="M351.19,301.24v-5.91h4.41v-5.21l6.64-6.09v11.3h6.26v5.91h-6.26v16.43a15.51,15.51,0,0,0,.44,4.88c.29.62,1,.93,2.18.93a9.81,9.81,0,0,0,3.64-.7v6.05a15,15,0,0,1-5.11.91,8.31,8.31,0,0,1-4.93-1.35,5.72,5.72,0,0,1-2.38-3.37,34.68,34.68,0,0,1-.48-7V301.24Z"/><path d="M378.22,323.27V286.44H372.1v-5.91h12.77v18.68q6-4.83,11.36-4.83a10.06,10.06,0,0,1,5.53,1.4,7,7,0,0,1,2.95,3.69,21.59,21.59,0,0,1,.79,6.7v17.1h5.77v5.91H398.86v-20.7a34.16,34.16,0,0,0-.25-5.14,3.4,3.4,0,0,0-1.34-2.14,4.2,4.2,0,0,0-2.61-.84q-3.86,0-9.79,4.37v18.54h5.87v5.91H372.1v-5.91Z"/><path d="M450.09,313.93H421.62a12.31,12.31,0,0,0,3.71,7.59,11,11,0,0,0,7.87,2.9,12.91,12.91,0,0,0,11-5.59l5.87,2.59a17.64,17.64,0,0,1-7.45,6.59,22.33,22.33,0,0,1-9.58,2.15,19.39,19.39,0,0,1-13.27-4.84q-5.51-4.85-5.51-13.07a16.82,16.82,0,0,1,5.37-12.83,17.5,17.5,0,0,1,12.33-5,18.19,18.19,0,0,1,12.36,4.92Q449.88,304.21,450.09,313.93Zm-6.85-4.82a12.14,12.14,0,0,0-3.71-6.46,10.27,10.27,0,0,0-7.38-2.88,9.75,9.75,0,0,0-6.82,2.6,11.14,11.14,0,0,0-3.46,6.74Z"/><path d="M461.14,323.27v-22h-6.82v-5.91h12.14V303a13.5,13.5,0,0,1,3.11-4.93,9.9,9.9,0,0,1,4.22-2.59,23.1,23.1,0,0,1,6.06-.63h1.75v6.72h-1.33a21.47,21.47,0,0,0-7.57,1,6.84,6.84,0,0,0-3.71,3.69q-1.2,2.67-1.2,9.6v7.45h7.38v5.91H454.32v-5.91Z"/><path d="M517.45,313.93H489a12.31,12.31,0,0,0,3.71,7.59,11,11,0,0,0,7.87,2.9,12.88,12.88,0,0,0,11-5.59l5.88,2.59A17.7,17.7,0,0,1,510,328a22.33,22.33,0,0,1-9.58,2.15,19.39,19.39,0,0,1-13.27-4.84q-5.52-4.85-5.51-13.07A16.82,16.82,0,0,1,487,299.42a17.46,17.46,0,0,1,12.32-5,18.19,18.19,0,0,1,12.37,4.92Q517.24,304.21,517.45,313.93Zm-6.85-4.82a12.2,12.2,0,0,0-3.71-6.46,10.28,10.28,0,0,0-7.38-2.88,9.75,9.75,0,0,0-6.82,2.6,11.14,11.14,0,0,0-3.46,6.74Z"/><path d="M545.5,323.7v-22h-5.25v-5.91h11.9V323.7h5.24v5.91H540.25V323.7Zm-52.3-90.81q0-22.14,15.65-38.52T548.58,178a54.06,54.06,0,0,1,39,15.89q16.36,15.88,16.37,39a53.06,53.06,0,0,1-16.37,39.25q-16.37,16.14-39,16.13a53.06,53.06,0,0,1-39.25-16.37Q493.19,255.54,493.2,232.89Z"/><path d="M561.76,329.61V318h6v1.12a5.49,5.49,0,0,0,2.57,3.92,9.19,9.19,0,0,0,5.33,1.54,10.13,10.13,0,0,0,5.14-1.12,3.46,3.46,0,0,0,1.93-3.11,3,3,0,0,0-1.59-2.83,21.55,21.55,0,0,0-6.32-1.68q-7-1.18-10-3.82a8.68,8.68,0,0,1-3-6.84,9,9,0,0,1,3.25-7.09,12.53,12.53,0,0,1,8.57-2.85,16.46,16.46,0,0,1,8.25,2v-1.45h5.91V307h-5.91v-2.07a8.75,8.75,0,0,0-7.83-4.16,7.59,7.59,0,0,0-4.32,1.14,3.5,3.5,0,0,0-1.7,3,2.65,2.65,0,0,0,1.56,2.65,31.57,31.57,0,0,0,6.7,1.51,34.88,34.88,0,0,1,7.45,1.8,9.32,9.32,0,0,1,4.17,3.43,9.55,9.55,0,0,1,1.67,5.58,9,9,0,0,1-3.62,7.5,15,15,0,0,1-9.39,2.79,14.8,14.8,0,0,1-8.85-2.47v1.91Z"/><path d="M351.19,397q0-23.58,15.58-38.69t38-15.11a53.15,53.15,0,0,1,37.79,14.9Q458.35,373,458.35,397T442.61,436q-15.74,14.94-37.84,14.94-22.74,0-38.16-15.15T351.19,397Zm21.16-.06q0,15.09,9.42,24.73a32.27,32.27,0,0,0,46.11-.1q9.31-9.75,9.31-24.63t-9.47-24.67a30.89,30.89,0,0,0-23-9.7q-14.11,0-23.27,9.91T372.35,397Z"/><path d="M510.25,346.05v12.32q19.26-13.89,35.16-13.89,9.9,0,16.37,4.68a21.59,21.59,0,0,1,8.48,11.47q2,6.8,2,19.85v49.69h17.16V448H552.25V381.32q0-11.58-3.47-15.11a11.51,11.51,0,0,0-8.53-3.52q-13.26,0-30,12.95v54.53h17.58V448H472.35V430.17h17.9V363.85h-17.9v-17.8Z"/><path d="M612.58,430.17V319.32H594.47v-17.8h38.11V430.17h15.58V448H594.47V430.17Z"/><path d="M701,446.17l-33.47-82.32H650.58v-17.8H701v17.8H688.79l22,56.42,21.58-56.42H718.9v-17.8h49.37v17.8H753.11l-50.42,129.8H668.9V476.17h19.89Z"/><path d="M650.53,312.28a17.12,17.12,0,0,1,5.17-12.84,17.45,17.45,0,0,1,12.61-5,17.64,17.64,0,0,1,12.54,4.94,18.56,18.56,0,0,1,0,25.83,17.57,17.57,0,0,1-12.56,5,17.35,17.35,0,0,1-17.78-17.88Zm7,0a11.24,11.24,0,0,0,3.12,8.2,10.71,10.71,0,0,0,15.3,0,12.3,12.3,0,0,0-.05-16.36,10.29,10.29,0,0,0-7.62-3.22,10.07,10.07,0,0,0-7.72,3.29A11.53,11.53,0,0,0,657.56,312.26Z"/><path d="M703.31,295.37v4.09q6.39-4.62,11.67-4.61a9.06,9.06,0,0,1,5.43,1.55,7.18,7.18,0,0,1,2.81,3.81,24.79,24.79,0,0,1,.67,6.58v16.49h5.69v5.9H717.25V307.07c0-2.56-.39-4.23-1.15-5a3.83,3.83,0,0,0-2.83-1.17q-4.41,0-10,4.3v18.09h5.84v5.9H690.74v-5.9h5.94v-22h-5.94v-5.9Z"/><path d="M768.17,314H739.74a12.31,12.31,0,0,0,3.71,7.58,10.93,10.93,0,0,0,7.85,2.9,12.88,12.88,0,0,0,11-5.59l5.86,2.59a17.53,17.53,0,0,1-7.44,6.58,22.29,22.29,0,0,1-9.57,2.15,19.37,19.37,0,0,1-13.25-4.84q-5.5-4.83-5.5-13a16.77,16.77,0,0,1,5.36-12.82,17.44,17.44,0,0,1,12.31-5,18.13,18.13,0,0,1,12.35,4.91Q768,304.25,768.17,314Zm-6.84-4.82a12.13,12.13,0,0,0-3.7-6.44,10.26,10.26,0,0,0-7.37-2.88,9.66,9.66,0,0,0-6.81,2.6,11.09,11.09,0,0,0-3.46,6.72Z"/><path d="M170.07,636V630.3h4.27v-5l6.44-5.89V630.3h6.06V636h-6.06V652a15.18,15.18,0,0,0,.42,4.73c.28.6,1,.9,2.12.9a9.62,9.62,0,0,0,3.52-.68v5.86a14.61,14.61,0,0,1-5,.88,8,8,0,0,1-4.77-1.3,5.58,5.58,0,0,1-2.31-3.27,33.54,33.54,0,0,1-.47-6.78V636Z"/><path d="M191.55,646.7a16.59,16.59,0,0,1,5-12.45,16.93,16.93,0,0,1,12.24-4.86A17.12,17.12,0,0,1,221,634.18a18,18,0,0,1,0,25.06,17.05,17.05,0,0,1-12.18,4.81,16.82,16.82,0,0,1-17.25-17.35Zm6.81,0a10.92,10.92,0,0,0,3,8,10.37,10.37,0,0,0,14.84,0,11,11,0,0,0,3-7.93,10.87,10.87,0,0,0-3-7.94,9.93,9.93,0,0,0-7.38-3.12,9.73,9.73,0,0,0-7.49,3.19A11.15,11.15,0,0,0,198.36,646.68Z"/><path d="M248.88,663.1V651.85h5.76v1.09a5.32,5.32,0,0,0,2.49,3.79,9,9,0,0,0,5.17,1.49,9.94,9.94,0,0,0,5-1.08,3.36,3.36,0,0,0,1.86-3,2.92,2.92,0,0,0-1.54-2.74,20.77,20.77,0,0,0-6.12-1.62q-6.78-1.15-9.67-3.71a8.44,8.44,0,0,1-2.9-6.63,8.76,8.76,0,0,1,3.15-6.86,12.16,12.16,0,0,1,8.31-2.77,15.91,15.91,0,0,1,8,1.91v-1.4h5.73v10.88h-5.73v-2a8.48,8.48,0,0,0-7.59-4,7.3,7.3,0,0,0-4.18,1.1,3.37,3.37,0,0,0-1.65,2.93,2.58,2.58,0,0,0,1.51,2.56,30.64,30.64,0,0,0,6.49,1.47,33.37,33.37,0,0,1,7.22,1.74,9.13,9.13,0,0,1,4,3.32,9.28,9.28,0,0,1,1.61,5.41,8.69,8.69,0,0,1-3.51,7.27,14.56,14.56,0,0,1-9.1,2.69,14.34,14.34,0,0,1-8.57-2.38v1.84Z"/><path d="M315,648.33H287.44a11.91,11.91,0,0,0,3.59,7.35,10.64,10.64,0,0,0,7.62,2.81,12.52,12.52,0,0,0,10.68-5.42l5.69,2.51A17.15,17.15,0,0,1,307.8,662a21.71,21.71,0,0,1-9.28,2.08,18.79,18.79,0,0,1-12.86-4.69q-5.34-4.7-5.34-12.66a16.31,16.31,0,0,1,5.2-12.43,16.93,16.93,0,0,1,12-4.88,17.58,17.58,0,0,1,12,4.76Q314.81,638.91,315,648.33Zm-6.64-4.68a11.79,11.79,0,0,0-3.59-6.25,10,10,0,0,0-7.15-2.8,9.43,9.43,0,0,0-6.61,2.53,10.8,10.8,0,0,0-3.36,6.52Z"/><path d="M354.8,648.33H327.22a11.91,11.91,0,0,0,3.59,7.35,10.63,10.63,0,0,0,7.62,2.81,12.49,12.49,0,0,0,10.67-5.42l5.7,2.51a17.21,17.21,0,0,1-7.22,6.39,21.71,21.71,0,0,1-9.28,2.08,18.78,18.78,0,0,1-12.86-4.69q-5.34-4.7-5.34-12.66a16.27,16.27,0,0,1,5.2-12.43,16.93,16.93,0,0,1,11.94-4.88,17.59,17.59,0,0,1,12,4.76Q354.59,638.91,354.8,648.33Zm-6.65-4.68a11.66,11.66,0,0,0-3.59-6.25,9.94,9.94,0,0,0-7.15-2.8,9.43,9.43,0,0,0-6.6,2.53,10.8,10.8,0,0,0-3.36,6.52Z"/><path d="M376.82,636V630.3h4.27v-5l6.44-5.89V630.3h6.06V636h-6.06V652a15.18,15.18,0,0,0,.42,4.73c.28.6,1,.9,2.12.9a9.62,9.62,0,0,0,3.52-.68v5.86a14.61,14.61,0,0,1-4.95.88,8,8,0,0,1-4.77-1.3,5.58,5.58,0,0,1-2.31-3.27,33.54,33.54,0,0,1-.47-6.78V636Z"/><path d="M403,657.37V621.7h-5.93V616h12.37v18.09q5.79-4.66,11-4.67a9.72,9.72,0,0,1,5.35,1.35,6.87,6.87,0,0,1,2.87,3.58,21.34,21.34,0,0,1,.76,6.49v16.56H435v5.73H423V643a32.67,32.67,0,0,0-.24-5,3.31,3.31,0,0,0-1.3-2.07,4,4,0,0,0-2.52-.81q-3.74,0-9.49,4.24v18h5.69v5.73H397.08v-5.73Z"/><path d="M472.64,648.33H445.06a12,12,0,0,0,3.59,7.35,10.64,10.64,0,0,0,7.62,2.81A12.51,12.51,0,0,0,467,653.07l5.69,2.51a17.15,17.15,0,0,1-7.22,6.39,21.71,21.71,0,0,1-9.28,2.08,18.79,18.79,0,0,1-12.86-4.69q-5.34-4.7-5.34-12.66a16.31,16.31,0,0,1,5.2-12.43,16.93,16.93,0,0,1,11.95-4.88,17.6,17.6,0,0,1,12,4.76Q472.44,638.91,472.64,648.33ZM466,643.65a11.73,11.73,0,0,0-3.59-6.25,10,10,0,0,0-7.15-2.8,9.43,9.43,0,0,0-6.61,2.53,10.73,10.73,0,0,0-3.35,6.52Z"/><path d="M505.25,663.64,496.46,636h-4V630.3h13.82V636H502l6.28,19.79L514.53,636H511V630.3h15.86V636h-3.61l6.27,19.79L535.77,636h-4.51V630.3h14.8V636h-4.71l-8.79,27.61H526.5L519,639.92l-7.65,23.72Z"/><path d="M546.27,646.7a16.59,16.59,0,0,1,5-12.45,16.91,16.91,0,0,1,12.23-4.86,17.15,17.15,0,0,1,12.17,4.79,18,18,0,0,1,0,25.06,17,17,0,0,1-12.18,4.81,16.82,16.82,0,0,1-17.24-17.35Zm6.81,0a10.92,10.92,0,0,0,3,8,10.37,10.37,0,0,0,14.84,0,11.92,11.92,0,0,0-.05-15.87,10,10,0,0,0-7.39-3.12,9.75,9.75,0,0,0-7.49,3.19A11.18,11.18,0,0,0,553.08,646.68Z"/><path d="M591.53,657.37V636h-6.6V630.3h11.75v7.39a13.13,13.13,0,0,1,3-4.78,9.72,9.72,0,0,1,4.08-2.51,22.74,22.74,0,0,1,5.88-.61h1.69v6.51h-1.28a20.8,20.8,0,0,0-7.34,1,6.62,6.62,0,0,0-3.59,3.58q-1.17,2.58-1.17,9.3v7.21h7.15v5.73H584.93v-5.73Z"/><path d="M618.16,657.37V621.7h-5.82V616H624.6v41.4h5v5.73H612.34v-5.73Z"/><path d="M674.41,657.37v5.73H662.08v-4.81a15.19,15.19,0,0,1-11.73,5.35,16.25,16.25,0,0,1-11.25-4.37q-4.85-4.37-4.84-12.43t5-12.78a16,16,0,0,1,11.25-4.67,15.42,15.42,0,0,1,11.59,5.28v-13h-6.31V616h12.74v41.4Zm-33.27-10.7q0,5.42,3.06,8.33a10.48,10.48,0,0,0,14.67-.15q3.21-3.06,3.21-8.49c0-3.63-1.09-6.38-3.27-8.23a11.06,11.06,0,0,0-7.34-2.78,9.56,9.56,0,0,0-7.35,3.27A11.49,11.49,0,0,0,641.14,646.67Z"/><path d="M727.88,657.37v5.73H716.63v-4a14.65,14.65,0,0,1-10.44,4.54,11.41,11.41,0,0,1-7.78-2.91,9.5,9.5,0,0,1-3.3-7.46,9.6,9.6,0,0,1,3.51-7.59,12.52,12.52,0,0,1,8.45-3,16.24,16.24,0,0,1,8.91,2.78v-3.26a12.45,12.45,0,0,0-.47-3.86,5,5,0,0,0-2.22-2.44,8.55,8.55,0,0,0-4.56-1.08,7.43,7.43,0,0,0-7,3.86L695.55,637q4.1-7.65,14.16-7.65a18.24,18.24,0,0,1,6.39,1,9.29,9.29,0,0,1,4,2.57,8.4,8.4,0,0,1,1.77,3.41,26.09,26.09,0,0,1,.46,5.82v15.18ZM716,650.9a13.63,13.63,0,0,0-8.43-3.25,6.59,6.59,0,0,0-4.48,1.56,5.1,5.1,0,0,0-1.79,4,5.2,5.2,0,0,0,1.57,3.86,5.83,5.83,0,0,0,4.29,1.56q4.68,0,8.84-3.93Z"/><path d="M731.6,663.1V651.85h5.76v1.09a5.39,5.39,0,0,0,2.49,3.79,9,9,0,0,0,5.17,1.49,9.89,9.89,0,0,0,5-1.08,3.36,3.36,0,0,0,1.86-3,2.92,2.92,0,0,0-1.54-2.74,20.67,20.67,0,0,0-6.11-1.62q-6.78-1.15-9.68-3.71a8.43,8.43,0,0,1-2.89-6.63,8.76,8.76,0,0,1,3.15-6.86,12.15,12.15,0,0,1,8.3-2.77,15.91,15.91,0,0,1,8,1.91v-1.4h5.73v10.88h-5.73v-2a8.45,8.45,0,0,0-7.58-4,7.34,7.34,0,0,0-4.19,1.1,3.38,3.38,0,0,0-1.64,2.93,2.57,2.57,0,0,0,1.51,2.56,30.33,30.33,0,0,0,6.48,1.47,33.22,33.22,0,0,1,7.22,1.74,9,9,0,0,1,4,3.32,9.28,9.28,0,0,1,1.61,5.41A8.69,8.69,0,0,1,755,661a14.56,14.56,0,0,1-9.1,2.69,14.36,14.36,0,0,1-8.57-2.38v1.84Z"/><path d="M785.24,657.37V636h-5.08V630.3h11.52v27.07h5.08v5.73h-16.6v-5.73Zm-.92-38.22a3.83,3.83,0,0,1,1.1-2.71,3.95,3.95,0,0,1,5.54,0,3.68,3.68,0,0,1,1.16,2.74,3.9,3.9,0,0,1-7.8,0Z"/><path d="M800.25,636V630.3h4.27v-5l6.44-5.89V630.3H817V636H811V652a15.18,15.18,0,0,0,.42,4.73c.28.6,1,.9,2.12.9a9.62,9.62,0,0,0,3.52-.68v5.86a14.61,14.61,0,0,1-4.95.88,8,8,0,0,1-4.77-1.3,5.58,5.58,0,0,1-2.31-3.27,33.54,33.54,0,0,1-.47-6.78V636Z"/><path d="M843.79,657.37V636H838.7V630.3h11.52v27.07h5.09v5.73H838.7v-5.73Zm-.92-38.22a3.83,3.83,0,0,1,1.1-2.71,3.95,3.95,0,0,1,5.54,0,3.68,3.68,0,0,1,1.16,2.74,3.91,3.91,0,0,1-3.9,3.9A3.7,3.7,0,0,1,844,621.9,3.77,3.77,0,0,1,842.87,619.15Z"/><path d="M859.54,663.1V651.85h5.76v1.09a5.39,5.39,0,0,0,2.49,3.79,9,9,0,0,0,5.17,1.49,9.89,9.89,0,0,0,5-1.08,3.36,3.36,0,0,0,1.86-3,2.92,2.92,0,0,0-1.54-2.74,20.67,20.67,0,0,0-6.11-1.62q-6.78-1.15-9.68-3.71a8.43,8.43,0,0,1-2.89-6.63,8.76,8.76,0,0,1,3.15-6.86,12.15,12.15,0,0,1,8.3-2.77,15.91,15.91,0,0,1,8,1.91v-1.4h5.73v10.88H879v-2a8.45,8.45,0,0,0-7.58-4,7.34,7.34,0,0,0-4.19,1.1,3.38,3.38,0,0,0-1.64,2.93,2.57,2.57,0,0,0,1.51,2.56,30.33,30.33,0,0,0,6.48,1.47,33.22,33.22,0,0,1,7.22,1.74,9,9,0,0,1,4,3.32,9.28,9.28,0,0,1,1.61,5.41A8.69,8.69,0,0,1,883,661a14.56,14.56,0,0,1-9.1,2.69,14.36,14.36,0,0,1-8.57-2.38v1.84Z"/><path d="M904.27,663.1v-8.34h8.34V662a21.71,21.71,0,0,1-.58,5.72,5.93,5.93,0,0,1-2.46,3.34,9.75,9.75,0,0,1-5.3,1.41V669c2.71-.4,4.07-2.09,4.07-5.05,0-.18,0-.45,0-.81Z"/></g></svg>