<svg xmlns="http://www.w3.org/2000/svg" viewBox="0 0 1080 1296"><g id="Layer_1" data-name="Layer 1"><path d="M174.86,540.23c-3.67-2.52-5.5-3.8-9.14-6.38-.52,1.91-.79,2.84-1.3,4.65a16.92,16.92,0,0,0-.78,4.12,5.69,5.69,0,0,0,2.07,4.13l1.55,1.48c0,1.1,0,1.65-.06,2.75-3.6-3.63-5.4-5.47-9-9.2v-2.31l.81.8c1.07,1.05,1.79,1.44,2.17,1.14s.86-1.39,1.44-3.38c4.25-14.83,7.94-29.8,11.58-44.79h1.36c3.7,23.41,6.26,47,8.56,70.55l3,2.62c-.06,1.47-.1,2.2-.16,3.66-5.63-5.22-8.43-7.88-14-13.33,0-1.21.05-1.81.09-3,1.51,1.41,2.27,2.11,3.79,3.5C176.1,550.21,175.69,546.81,174.86,540.23Zm-8.47-8.81c3.19,2.09,4.79,3.13,8,5.17-1.26-9.72-1.93-14.34-3.31-23.08C169.13,521.22,168.19,524.81,166.39,531.42Z"/><path d="M223.07,493.7q-2.91,49-5.81,98l2.43,1.88c-.11,1.81-.17,2.72-.27,4.53-1.11-.89-1.66-1.34-2.76-2.24a26.08,26.08,0,0,0-2.52-1.83l-2.55-1.43-.61-.52.5-8.68-.08-.07c-1.31,5.69-2.94,7.58-4.9,5.88s-3.39-6-4.52-12.71a99.08,99.08,0,0,1-1.06-21.91c.41-7.71,1.49-13.69,3.28-18.27s3.71-6.73,5.72-6.09c1.71.54,3.09,3.38,4.13,8.76q1.14-19.8,2.29-39.61l-3.8-.18.24-4.25,3.36,0a17.67,17.67,0,0,0,3.9-.64C221.87,493.94,222.88,493.69,223.07,493.7Zm-10.75,75.21c.36-6.18.54-9.27.89-15.45a64.94,64.94,0,0,0-.28-13.73c-.54-3.15-1.19-4.81-1.93-5.07-.58-.21-1.08.63-1.51,2.5A86.87,86.87,0,0,0,208.34,549c-.47,8.29-.7,12.44-1.17,20.72q-.48,8.61-.31,11.84c.11,2.16.47,3.49,1.07,4s1.4-.21,2.34-2.26S211.89,576.38,212.32,568.91Z"/><path d="M235.17,569.75c.38-6.08.56-9.12.94-15.2a64.39,64.39,0,0,0,.12-8.83c-.17-1.78-.83-2.85-2-3.21a1.8,1.8,0,0,0-2.2.75,5,5,0,0,0-.93,2.63,14.5,14.5,0,0,0,.35,3.14,20.68,20.68,0,0,1,.24,5.13,22.59,22.59,0,0,1-1.33,6.94c-.72,1.76-1.52,2.41-2.41,2s-1.46-1.69-1.94-3.85a26,26,0,0,1-.47-7.22c.28-4.61,1.31-8.21,3.1-11s4.12-3.79,7-3A8.8,8.8,0,0,1,241,542.8c1.36,2.53,1.81,7.53,1.35,14.91q-1.15,18.56-2.3,37.1c-.39,6.4-.14,9.9.78,10.53.26.17.64-.15,1.16-1,.15,1.77.22,2.65.36,4.43-1.64,5-3.29,6.8-5,5.53s-3-5.93-3.74-13.59c-2.38,5.45-4.74,7-7.1,5.16-1.59-1.27-2.75-3.8-3.49-7.48a47.3,47.3,0,0,1-.71-12C223.16,572.45,227.41,567.07,235.17,569.75Zm-.95,15.49c.27-4.4.41-6.61.68-11-2.06-.79-3.55-.37-4.47,1.24s-1.53,4.79-1.82,9.59a46,46,0,0,0,.2,9.25c.36,2.48.93,4,1.7,4.56s1.62,0,2.24-1.84S233.85,591.23,234.22,585.24Z"/><path d="M246.58,543.48c4.62,1.34,6.93,2,11.55,3.29l-.36,5.92-2.78-.87q1.19,21.42,2.29,42.83,2.52-14.48,5-29c.62-3.86,1-6.43,1-7.68q.23-3.54-1.69-4.13l-.86-.26.37-6c2.9.8,4.35,1.19,7.25,2-.15,2.49-.23,3.74-.38,6.23a1.57,1.57,0,0,0-2.12.93,43,43,0,0,0-1.58,7.22q-7.59,44.77-15.66,89.45a51.73,51.73,0,0,1-1.88,8.76c-1.15,4.18-2.54,5.4-4.18,3.73-.93-.94-1.64-2.87-2.12-5.74a38.22,38.22,0,0,1-.44-8.77,25.64,25.64,0,0,1,1.23-7c.65-1.77,1.32-2.36,2-1.74,1,.88,1.7,4,2.06,9.38a6.08,6.08,0,0,0,.47,2.67c.51.47,1.27-2.13,2.28-7.89,1.68-9.23,2.52-13.93,4.21-23.47q-1.95-36.85-4.17-73.68l-1.85-.59Z"/><path d="M281.26,552.93c4.9,1.24,7.35,1.85,12.27,3l-.41,6.93-3.47-.93q.63,24.63,1.22,49.26,4.15-27,8.19-53.94l1.52.35q1.23,29.46,2.4,58.92,2.53-19.75,5-39.52c.42-3.31.67-5.65.75-7,.11-2-.33-3.2-1.33-3.45l-1.59-.4c.16-2.91.25-4.36.41-7.26,3,.69,4.54,1,7.57,1.69-.16,3-.25,4.47-.41,7.45l-.87-.22c-.74-.18-1.28.26-1.61,1.3a80,80,0,0,0-1.52,9.5q-5,38.34-10.08,76.68l-1.6-.92q-1.14-30.7-2.31-61.42-4.19,27.54-8.47,55.07l-1.59-1q-1.1-43.47-2.29-87l-2.22-.62Z"/><path d="M324.36,559.75q-2.55,47.7-5.11,95.41l1.85.88-.41,7.61c-4.23-2.12-6.34-3.21-10.55-5.44.16-3,.24-4.42.41-7.37l2.26,1.14,4.54-83-2.26-.55c.16-3,.25-4.49.41-7.49l3,.65a4.8,4.8,0,0,0,4-.71A6.78,6.78,0,0,1,324.36,559.75Zm-4.58-42.82a67.54,67.54,0,0,1,1.69-12.54c.85-3.43,1.75-5.15,2.69-5.13s1.69,1.8,2.18,5.36a69.4,69.4,0,0,1,.34,12.82A68.59,68.59,0,0,1,325,530.17c-.87,3.51-1.79,5.19-2.75,5.06s-1.65-2-2.12-5.61A68.62,68.62,0,0,1,319.78,516.93Z"/><path d="M338.71,533.27q-.81,16.1-1.64,32.18l4.78.92c-.16,3.23-.24,4.85-.41,8.08l-4.78-1q-1.79,35.13-3.59,70.28-.7,14,.88,14.73c1,.42,1.94-4,2.9-13.22l1.48.59q-1.17,14.7-3,20.34c-1.19,3.76-2.88,5.1-5.05,4.05-1.56-.75-2.64-2.63-3.24-5.61a49.5,49.5,0,0,1-.88-9.89q0-5.43.45-13.65,1.8-34.51,3.61-69l-2.64-.6.41-7.78,2.64.54L332,538.51C334.69,536.46,336,535.41,338.71,533.27Z"/><path d="M356.54,494.05l-4.62,96.77.1,0c2.29-16.82,5-25.1,8.08-24.59,1.36.23,2.73,3,3.77,8.11,1.92,9.38,1.26,19.72.77,29.39l-3.12,69.68,2.75,1c-.15,3.39-.22,5.08-.37,8.47-4.84-1.9-7.26-2.88-12.08-4.91.16-3.3.24-4.95.39-8.26,1.1.45,1.64.67,2.74,1.1l3.54-76.61q.74-15.81-1.09-16.16c-1.46-.29-2.83,3.66-4.1,11.74s-2,13.35-2.09,15.85l-3,62.46L351,669.3c-.16,3.29-.24,4.94-.39,8.23-4.87-2.07-7.3-3.14-12.15-5.35l.4-8,2.79,1.21q4-80.42,7.9-160.81l-2.94-.09c.16-3.19.24-4.79.39-8l2.6,0a9.33,9.33,0,0,0,4.48-1.3l1.69-1.19Z"/><path d="M376.43,691.28c-3.26-1.2-5.62-8.26-7-20.92a277.79,277.79,0,0,1-1.08-42.63,257.58,257.58,0,0,1,4.74-41.32c2.44-11.61,5.25-17.31,8.38-16.86s5.53,6.89,7,19.37a274.31,274.31,0,0,1,1.23,44.3c-.7,14.27-1.7,28.62-4.64,42.66C382.59,687.37,379.68,692.48,376.43,691.28Zm4.72-114.46c-.84-.14-1.57,1-2.18,3.29a61.12,61.12,0,0,0-1.4,10.88c-.79,12.84-1.25,25.79-1.8,38.68-.52,12.46-1.13,25-1.41,37.41a76,76,0,0,0,.5,11.6c.42,3.07,1.1,4.78,2,5.11.75.26,1.46-.76,2.12-3.1s1.19-6.8,1.57-13.4c.64-11.21,1.09-22.46,1.54-33.68.61-15.57,1.46-31.27,1.41-46.78C383.5,580.43,382.67,577.06,381.15,576.82Z"/><path d="M416.36,577.82q-1.85,56.22-3.68,112.46l2.8.73c-.12,3.57-.17,5.36-.29,8.93l-4.13-1.14c-2.06-.58-3.41-.64-4-.18a3.23,3.23,0,0,1-1.4.73c.34-9.8.5-14.7.84-24.5l-.1,0q-1.37,11.1-3.56,17.06c-1.47,4-3,5.71-4.5,5.22s-2.66-2.63-3.56-6.47a60,60,0,0,1-1.52-12.26q-.17-6.5.36-20.39,1.4-36.79,2.77-73.59l-2.73-.42.35-9c3.69.51,5.54.76,9.25,1.24q-1.43,39.4-2.84,78.81-.64,18-.61,23.87c0,3.9.42,6,1.18,6.18s1.77-1.63,2.91-5.63a78.09,78.09,0,0,0,2.46-14.09q.75-8.08,1.25-22.88l1.93-56.16-3.18-.44c.12-3.69.19-5.53.32-9.22C410.53,577.12,412.47,577.36,416.36,577.82Z"/><path d="M430.84,541q-.55,19.17-1.12,38.34l4.84.5-.26,9.56c-1.95-.21-2.92-.32-4.86-.55L427,672.55q-.48,16.73,1.16,17.1t2.74-16.28l1.52.31q-.93,17.51-2.68,24.62t-5.12,6.26c-1.61-.41-2.75-2.3-3.41-5.64a61.78,61.78,0,0,1-1.07-11.48q-.08-6.45.23-16.34,1.29-41.54,2.57-83.07l-2.69-.33.3-9.4,2.69.3.95-30.89C426.84,545,428.18,543.68,430.84,541Z"/><path d="M459.76,494.19q-2.25,102.59-4.51,205.16l2.07.36-.2,9.65c-4.44-.79-6.66-1.21-11.08-2.11.09-3.82.14-5.74.23-9.56l2.22.43q2.28-95.68,4.54-191.38l-2.12,0c.09-3.83.14-5.74.23-9.56a12.31,12.31,0,0,0,5.9-1.55l1.94-1.42Z"/><path d="M473.76,638.23l.51-28.81q.21-11.67-.15-16.51T472,588c-.95-.06-1.71.82-2.27,2.64a20.06,20.06,0,0,0-.91,5.6,44.56,44.56,0,0,0,.46,5.79,66.45,66.45,0,0,1,.39,9.61,90.44,90.44,0,0,1-1.21,14.19q-1.06,5.88-2.51,5.72t-2.15-5.87a86.53,86.53,0,0,1-.67-13.83,94.63,94.63,0,0,1,3-23.54q2.72-9.6,7.16-9.34,3.43.2,5.67,6.11t1.91,26.21q-.54,33.94-1.07,67.91-.29,17.55,1.24,17.72c.28,0,.68-.94,1.21-2.92.22,2.92.33,4.39.56,7.32q-2.35,15.69-5.15,15.3c-1.94-.26-3.47-7-4.55-20.06-2.39,12.63-4.92,18.68-7.58,18.25-1.79-.29-3.14-3.53-4-9.69a129,129,0,0,1-1.07-22.58C460.77,671.55,459.19,643,473.76,638.23Zm-.51,29.35c.15-8.35.22-12.53.37-20.87-2.22.3-3.79,2.41-4.73,6.31s-1.51,10.53-1.68,19.91a140,140,0,0,0,.49,17.22q.69,6.36,2,6.54,1.47.21,2.37-5.94T473.25,667.58Z"/><path d="M508.59,584.55l-1,121.43,2.84.18-.08,9.61-4.19-.29c-2.1-.15-3.47.09-4.1.75a4.09,4.09,0,0,1-1.39,1.1c.11-10.65.16-16,.27-26.63h-.1a103,103,0,0,1-3.2,19.23q-2.08,7-4.44,6.72c-1.49-.15-2.75-2.23-3.75-6.22a65,65,0,0,1-1.82-13q-.32-7.07-.1-22.4.56-40.59,1.12-81.18l-2.75-.15.14-10c3.73.19,5.6.28,9.33.43l-1,86.31q-.24,19.75-.06,26.08t1.34,6.45q1.21.12,2.81-6.73a96.88,96.88,0,0,0,2.15-15.76q.57-8.88.73-25l.63-61.06-3.22-.13c0-4,.07-6,.11-10.06C502.71,584.37,504.67,584.44,508.59,584.55Z"/><path d="M531.19,601.17a212,212,0,0,1,1.38,25.91c0,11.46-.5,23.15-2.77,34.38-1.78,8.79-3.87,13.19-6.13,13.13a3.59,3.59,0,0,1-2-.88,3.8,3.8,0,0,0-2.12-.89q-2.13-.08-3.33,4.85A48.35,48.35,0,0,0,515,689q-.06,8.31,2.13,8.42a8.91,8.91,0,0,0,4.38-1.62c1.9-1.13,4.79-2.13,6.35-1.61,8.05,2.66,6.7,33,6.7,42.32,0,16.07-.45,32.75-3.62,48.67-2.3,11.54-5.49,17.34-9.25,17.14-3-.16-5.45-3.75-7.23-10.73s-2.65-16-2.54-26.93a145.44,145.44,0,0,1,3.6-29.14c-3.59-9.9-2.9-21.41-2.91-31.64,0-12.13-.24-26.14,5.17-37.45-3-12.78-3.59-25.95-3.52-39A195.87,195.87,0,0,1,516.82,595c1.65-9.48,3.93-14.23,6.84-14.18,2.74,0,5,5.08,6.79,15.12q1.09-19.12,3.11-19.11t2.05,16q0,14.07-1.52,14.06c-.42,0-.8-1.51-1.14-4.51s-.66-4.5-1-4.5S531.47,599,531.19,601.17Zm-14.4,136q-.93,12.19-1,20-.1,17.44,1.88,26.39t5.29,9.1c2.81.13,5-4.21,6.74-12.91a152.47,152.47,0,0,0,2.55-29.29c0-9.75-.93-14.74-2.86-14.78-4.22,1.2-6.34,1.78-10.57,2.88C518.47,738.58,517.79,738.11,516.79,737.19Zm6.5-70.94c1.18,0,1.94-2.81,2.21-8.46.52-10.65.49-21.41.53-32.09,0-9.81.15-19.71-.32-29.48-.24-5.12-1-7.72-2.22-7.74-1,0-1.73,2.21-2.06,6.52-.87,11.38-.68,23.14-.72,34.67,0,10.25-.39,20.82.57,30.79C521.64,664.21,522.41,666.22,523.29,666.25Z"/><path d="M546.35,494.22q.1,59.06.2,118.09h.1c.92-10,1.48-28.88,6.91-31.47.73-.34,2.91,3,4.22,8.78,2.48,11,2.09,22.9,2.28,34.29l.45,82.39,2.84-.13c0,4,0,6,.06,10-5,.25-7.51.34-12.52.46,0-4,0-6,0-10l2.84-.08-.33-92q-.06-19-1.93-19-2.24,0-3.54,15.17t-1.31,19.71l.13,76.22,2.92,0c0,4,0,6,0,10-5.07.1-7.6.12-12.67.09,0-4,0-6,0-10h2.91q0-99.72,0-199.42h-3c0-4,0-6,0-10h2.6A7.9,7.9,0,0,0,544,495.7l1.62-1.48Z"/><path d="M572.69,543.84l.36,40.66,4.88-.16.1,10.07-4.89.18.8,88.82q.15,17.73,1.82,17.62,1.51-.1,2.11-17.88l1.54-.11q-.25,18.54-1.72,26.54t-4.9,8.26c-1.63.12-2.85-1.49-3.65-4.81a64.34,64.34,0,0,1-1.52-11.81q-.32-6.83-.39-17.43-.33-44.49-.64-89l-2.71.07c0-4,0-6.06-.07-10.11l2.71-.06-.24-33.09Z"/><path d="M600.49,640.37c-4.81.44-7.22.63-12,1,.11,8.43.16,12.64.27,21.07.19,11.4.21,22.89,1.12,34.21.51,6.25,1.63,9.33,3.27,9.15,1.45-.16,2.78-3.35,3.91-9.48,1.71-9.28,2-18.88,2.43-28.31l1.47-.15c-.39,12.38-.65,24.88-2.81,37-1.48,8.32-3.48,12.68-5.8,13-3.18.36-5.8-6.48-7.88-20.45a360.5,360.5,0,0,1-3.38-48.8,356,356,0,0,1,2.3-47.64c1.73-14,3.95-21,6.74-21.14,2.41-.11,4.65,4.9,6.52,14.83C599.43,609.59,599.89,625.09,600.49,640.37Zm-12.17-9.53,5.25-.38c-.08-5.41-.12-8.12-.19-13.54q-.25-17.56-1-22.78c-.53-3.46-1.2-5.18-2-5.14s-1.37,1.63-1.78,4.78-.55,11.08-.39,23.8C588.22,622.88,588.25,625.53,588.32,630.84Z"/><path d="M609.54,580.67l.66,35.26h.1c.2-9.37.25-18.84,1.38-28.13.74-6.15,1.68-9.28,2.76-9.35s1.94,2.33,2.7,7.2a138.82,138.82,0,0,1,1.36,18.07,116.44,116.44,0,0,1-.44,14.9q-.63,5.7-1.71,5.81c-.71.08-1.36-1.61-1.94-5a79,79,0,0,1-1-11.55,99.67,99.67,0,0,1,.21-11.17c.24-2.14.35-3.53.34-4.17,0-1.16-.17-1.74-.42-1.72-.81.06-1.49,5.34-2,15.81-.83,16.9-.49,33.95-.15,50.88q.42,22,.83,43.93l3.69-.57c.08,3.88.12,5.82.19,9.7-5.22.86-7.84,1.25-13.08,2-.06-3.92-.09-5.88-.16-9.79l2.58-.34-1.86-109.28-2.51.17c-.07-4-.1-6-.16-10l3.2-.19a5.87,5.87,0,0,0,3.74-1.27l.85-1.1Z"/><path d="M640.77,576.35Q642.38,636,644,695.59l1.93-.42c.1,3.78.15,5.67.26,9.44-4.42,1-6.63,1.5-11.06,2.41-.09-3.82-.14-5.73-.23-9.55l2.37-.47q-1.35-53.25-2.68-106.48l-2.32.22c-.09-3.88-.14-5.82-.24-9.7l3.06-.27a5.36,5.36,0,0,0,3.94-2.31A9.94,9.94,0,0,1,640.77,576.35Zm-8.32-52.65a111.39,111.39,0,0,1,.59-16.18c.56-4.43,1.31-6.64,2.25-6.65s1.84,2.22,2.65,6.65a125.76,125.76,0,0,1,.85,32.06q-.85,6.81-2.31,6.89t-2.62-6.65A109.82,109.82,0,0,1,632.45,523.7Z"/><path d="M659.76,574.46l1.2,37.73-1.48.23c-.9-8.81-1.93-26.15-6.7-27.87-.6-.21-2,2-2.76,5.5a56.17,56.17,0,0,0-.86,12.73,36.57,36.57,0,0,0,1.23,9.59,8.47,8.47,0,0,0,5,5.06q4,1.79,6,12.12a181.38,181.38,0,0,1,2.5,26.8,232.71,232.71,0,0,1-1,34.53c-1.08,9.19-2.84,14.17-5.21,14.78s-4.39-3.19-6.14-11.45c-.53,3.28-.8,4.92-1.33,8.21l-1.14.27q-.63-22.59-1.27-45.19l1.47-.27c.94,11.23,2.09,36.85,8.15,38.34.7.17,2.36-2.49,3.18-6.49a63.62,63.62,0,0,0,1-14.66,50.56,50.56,0,0,0-1.06-9.73,7,7,0,0,0-3.72-5,11.63,11.63,0,0,1-4.76-4.5q-1.9-3.09-3.31-12.07a182.28,182.28,0,0,1-1.83-24.27A215.79,215.79,0,0,1,648,588.34c1-8.55,2.68-12.93,4.93-13.16,1.6-.16,3.22,2.58,4.88,8.18l.85-8.78Z"/><path d="M690,624.75c-.41-10.45-.61-15.68-1-26.13q-.41-10.59-1-14.88t-2.37-4c-.94.14-1.64,1.1-2.11,2.88a18.38,18.38,0,0,0-.59,5.32,33.75,33.75,0,0,0,.76,5.19,55.43,55.43,0,0,1,.89,8.68,81.24,81.24,0,0,1-.44,13.28c-.49,3.78-1.21,5.78-2.16,6s-1.68-1.4-2.43-4.78a70,70,0,0,1-1.4-12.6,86.62,86.62,0,0,1,1.7-22.44c1.45-6.27,3.64-9.56,6.58-10,2.28-.3,4.25,1.19,5.92,4.42s2.76,10.87,3.25,22.93q1.22,30.31,2.44,60.63.63,15.67,2.11,15.18c.27-.09.62-1.12,1-3.09.36,2.48.55,3.72.91,6.2-1,9.88-2.39,15.2-4.21,15.85s-3.72-4.59-5.45-15.89c-1.67,12.37-3.82,19.08-6.42,19.93q-2.64.86-4.46-7a114.19,114.19,0,0,1-2.27-20.4C678.73,657.43,676.81,632.79,690,624.75Zm1,26.62c-.3-7.57-.44-11.36-.74-18.93q-3.22,1.5-4.3,7.3c-.71,3.87-.91,10.14-.59,18.76a113.58,113.58,0,0,0,1.39,15.5c.68,3.66,1.44,5.35,2.28,5.09s1.63-2.42,2-6.37S691.39,661.66,691,651.37Z"/><path d="M727.21,494q4.18,86.38,8.38,172.78c1.06-.44,1.58-.67,2.63-1.12.16,3.12.23,4.67.39,7.79l-3,1.33a13.41,13.41,0,0,0-2.72,1.6l-2.69,2.4-.67.29c-.31-6.53-.47-9.8-.77-16.33l-.1,0c-.45,12.45-1.77,19.21-3.94,20.12s-4.25-4.14-6.31-15.19c-2.62-14-3.68-28.44-4.3-42.52-.6-13.75-.77-27.85.56-41.71,1.07-11.15,2.69-16.85,4.78-17.19,1.77-.3,3.56,4.07,5.37,13l-3.51-74.46-3.82.1c-.15-3.32-.23-5-.38-8.3l3.36,0a11,11,0,0,0,3.81-1.3A17.66,17.66,0,0,1,727.21,494Zm.26,141.45q-.69-14.52-1.37-29-.79-16.87-2.29-24.82c-1-5.32-1.87-7.92-2.65-7.78q-.9.17-1.13,6.13t.59,23.88L722.51,645q.79,17.09,1.43,22.82c.43,3.82,1,5.59,1.63,5.33s1.41-3.19,2-8.53C728.53,655.09,728,645.15,727.47,635.49Z"/><path d="M749.94,608.34c-.48-9.14-.71-13.72-1.19-22.87-.32-6.18-.69-10.5-1.11-13s-1.2-3.6-2.37-3.36c-.93.2-1.62,1.1-2.06,2.71a15,15,0,0,0-.55,4.75,27.26,27.26,0,0,0,.79,4.51,42.21,42.21,0,0,1,1,7.58,66,66,0,0,1-.34,11.78c-.45,3.4-1.15,5.25-2.08,5.53s-1.67-1.06-2.44-4a54.81,54.81,0,0,1-1.49-11,70.82,70.82,0,0,1,1.5-20.06c1.38-5.66,3.53-8.72,6.45-9.27,2.25-.43,4.21.74,5.89,3.44s2.8,9.26,3.36,19.75q1.4,26.34,2.8,52.69.74,13.62,2.17,12.94c.27-.13.6-1.09,1-2.88.38,2.11.57,3.17.94,5.27-.9,8.8-2.23,13.72-4,14.62s-3.67-3.35-5.45-13c-1.54,11.18-3.58,17.51-6.12,18.72-1.72.82-3.2-1-4.43-5.48s-1.95-10.54-2.39-17.82C739,637.79,737.81,616,749.94,608.34Zm1.21,23.3c-.34-6.62-.52-9.94-.86-16.56-2.11,1.15-3.5,3.47-4.18,7s-.82,9.09-.43,16.69a87.68,87.68,0,0,0,1.49,13.51c.7,3.14,1.45,4.51,2.28,4.14s1.57-2.4,1.9-5.95S751.62,640.65,751.15,631.64Z"/><path d="M757.5,562.49c4.71-1,7.06-1.5,11.75-2.54.17,2.95.25,4.42.41,7.37l-2.82.69q3.84,24.71,7.77,49.39l1.08-37.81c.1-4.88.11-8,0-9.52-.16-2.81-.88-4-2.17-3.72l-.88.22c-.16-2.92-.25-4.38-.41-7.3,2.93-.66,4.4-1,7.32-1.68.17,2.85.25,4.27.41,7.11a2.71,2.71,0,0,0-1.93,2.32,66.59,66.59,0,0,0-.62,9.17Q775.64,637,774,697.81c.11,2.08-.09,6.6-.63,13.66s-1.67,11.26-3.41,12.52q-1.5,1.08-2.74-2.83a41.7,41.7,0,0,1-1.57-10.11,68.28,68.28,0,0,1,.23-11.12c.37-3.38.93-5.28,1.67-5.75,1.07-.66,2.12,2,3.16,7.81.31,1.72.57,2.51.79,2.36.54-.35.91-4.84,1.12-13.37q.46-17.06.94-34.1-7-43.56-13.72-87.18l-1.89.45Z"/><path d="M792.56,554.48c4.9-1.22,7.36-1.84,12.25-3.11.15,2.57.23,3.85.39,6.42l-3.45,1q3.33,21.65,6.72,43.28.88-26.07,1.84-52.14l1.5-.4q4.2,23.26,8.58,46.5.3-17.26.63-34.54.09-4.25,0-5.87c-.1-1.67-.64-2.35-1.63-2l-1.57.48c-.15-2.43-.22-3.64-.37-6.06,3-.81,4.48-1.23,7.46-2.07.15,2.33.22,3.49.36,5.82l-.85.27A2.13,2.13,0,0,0,823,553.8a61.4,61.4,0,0,0-.48,8.14q-.78,34-1.45,68L819.51,631q-4.47-24.15-8.75-48.34-1,27.71-1.84,55.41l-1.57,1q-6.21-39.23-12.17-78.48l-2.22.61Z"/><path d="M839.35,572.44c-.39-6.3-.59-9.44-1-15.74a61.51,61.51,0,0,0-1-8.86c-.38-1.66-1.15-2.32-2.28-2a3.27,3.27,0,0,0-2,2.23,8.47,8.47,0,0,0-.56,3.44,12.44,12.44,0,0,0,.74,3.06,20.54,20.54,0,0,1,.88,5.19,34.9,34.9,0,0,1-.4,8.41c-.46,2.52-1.13,4-2,4.4s-1.61-.39-2.34-2.33a27,27,0,0,1-1.39-7.65A39.68,39.68,0,0,1,829.54,548c1.38-4.25,3.5-6.69,6.35-7.49a5.51,5.51,0,0,1,5.72,1.5c1.6,1.59,2.62,5.88,3.06,13q1.1,17.76,2.18,35.51.57,9.18,1.93,8.22a5.74,5.74,0,0,0,1-2.32c.34,1.32.5,2,.83,3.28-.93,6.36-2.22,10.29-3.88,11.58s-3.41-1-5-7.21c-1.53,8.39-3.47,13.67-5.87,15.44-1.62,1.19-3,.39-4.16-2.46s-1.89-6.94-2.22-12.19C828.71,593.54,829.3,579.66,839.35,572.44Zm1,16c-.28-4.56-.43-6.84-.71-11.4a9.62,9.62,0,0,0-4,6c-.67,2.68-.83,6.7-.5,12a41.07,41.07,0,0,0,1.34,9.21c.65,2,1.36,2.75,2.14,2.21s1.49-2.22,1.83-4.83A79.26,79.26,0,0,0,840.34,588.47Z"/><path d="M862.6,532.61c.43,7.32.64,11,1.07,18.29l-1.38.63c-1.39-8.92-3.52-13-6.36-12.07-1.06.36-1.94,1.55-2.61,3.59a18.78,18.78,0,0,0-.77,6.94,9.15,9.15,0,0,0,1.2,4.65c.67.9,2.26,1.21,4.75.87s4.34,1,5.55,3.85,2,6.93,2.26,12.22a73,73,0,0,1-.91,17.78c-1,5.28-2.52,8.9-4.63,10.63s-3.94.94-5.57-2.5c-.46,2-.69,3.08-1.15,5.16l-1,.79-1.45-23.77,1.35-.81c1.82,13.34,4.34,18.56,7.58,16,1.16-.9,2.11-2.64,2.84-5.14a23.19,23.19,0,0,0,.86-8,10.74,10.74,0,0,0-1-4.38c-.53-.95-1.66-1.19-3.41-.77a6.89,6.89,0,0,1-4.38-.13c-1.18-.51-2.22-2.16-3.12-5a52.94,52.94,0,0,1-1.84-12.28,65.3,65.3,0,0,1,.86-16.53c1-4.8,2.52-7.44,4.68-8.1,1.53-.46,3.09.55,4.66,2.91.33-1.85.49-2.76.82-4.58Z"/><path d="M873.69,513.9c.36,6.64.55,10,.91,16.6l4.6-1.57.2,4-4.58,1.74q1,18.14,2,36.26.39,7.25,1.86,6.06c.88-.72,1.42-3.63,1.62-8.63l1.36-1a46.9,46.9,0,0,1-1.19,11.78,13.72,13.72,0,0,1-4.14,6.91c-1.42,1.24-2.51,1.44-3.26.58a7.9,7.9,0,0,1-1.54-4.06q-.42-2.75-.67-7.31-1.1-19.14-2.18-38.28l-2.55.94c-.1-1.78-.16-2.67-.26-4.44l2.56-.85c-.32-5.69-.49-8.54-.81-14.23C870,516.5,871.25,515.61,873.69,513.9Z"/><path d="M900.22,539.68c-4.32,2.67-6.49,4-10.84,6.57l.36,7.54c.28,5.92.68,9.86,1.18,11.77s1.45,2.23,2.86,1c1.25-1.11,2.36-3.18,3.35-6.1a49.73,49.73,0,0,0,2.12-11.12l1.3-1a56.54,56.54,0,0,1-2.48,14.22c-1.31,4-2.94,7-4.93,8.87-2.71,2.56-5,2.08-6.93-1.86s-3.08-9.67-3.45-16.77a66.14,66.14,0,0,1,1.68-19.3c1.48-5.92,3.56-9.12,6.19-10,2.27-.77,4.32.3,6.12,2.91S899.69,533.36,900.22,539.68Zm-11,2.81c1.91-1,2.86-1.58,4.76-2.65l-.2-4.59c-.17-4-.51-6.47-1-7.49s-1.13-1.39-1.9-1.1a3.24,3.24,0,0,0-1.65,2.32c-.37,1.28-.45,4.21-.24,8.76C889.07,539.64,889.12,540.59,889.21,542.49Z"/><path d="M919.17,493.47l.3,48.48,2.29-2.27v2.1c-1,1.08-1.55,1.62-2.59,2.69-.84.88-1.63,1.73-2.37,2.56-.94,1.11-1.42,1.67-2.36,2.8-.24.23-.35.35-.59.59,0-2-.06-3-.09-5l-.09.08c-.82,4.54-2.16,7.9-4,9.81s-3.48,1.55-5-1.26-2.43-7.49-2.65-13.64a48.22,48.22,0,0,1,1.7-15.71c1.37-4.44,3.06-6.84,5-7.56,1.68-.61,3.21.35,4.56,2.6l-.43-22.91-3.79.22-.07-2.69,3.36,0a34,34,0,0,0,3.85-.44C918,493.59,919,493.47,919.17,493.47ZM913.6,537c-.07-3.57-.1-5.36-.17-8.93s-.46-5.84-1.18-7.24-1.46-2-2.19-1.69c-.57.23-1,1-1.28,2.46a44.4,44.4,0,0,0-.25,8c.15,5.41.22,8.12.37,13.53a47.41,47.41,0,0,0,.53,7.25c.25,1.08.66,1.34,1.24.79s1.25-2.06,2-4.33A32.35,32.35,0,0,0,913.6,537Z"/></g></svg>