<?xml version="1.0" encoding="utf-8"?>
<!-- Generator: Adobe Illustrator 25.2.1, SVG Export Plug-In . SVG Version: 6.00 Build 0)  -->
<svg version="1.1" xmlns="http://www.w3.org/2000/svg" xmlns:xlink="http://www.w3.org/1999/xlink" x="0px" y="0px"
	 viewBox="0 0 100 100" style="enable-background:new 0 0 100 100;" xml:space="preserve">
<style type="text/css">
	.st0{fill:#FFFFFF;}
	.st1{fill:none;stroke:#FFFFFF;stroke-miterlimit:10;}
	.st2{fill:#FFFFFF;stroke:#000000;stroke-miterlimit:10;}
	.st3{fill:url(#);}
</style>
<g id="Layer_1">
	<path d="M0,0v25v50v25h100V75V25V0H0z M36,88H12V75V50V25V12h24v13L12,50l24,25V88z M24,50l26-27.08l26,27L50,77.08L24,50z M88,25
		v25v25v13H64V75l24-25L64,25V12h24V25z"/>
	<rect x="5.5" y="25" class="st0" width="1" height="50"/>
	<rect x="93.5" y="25" class="st0" width="1" height="50"/>
	<line class="st1" x1="50" y1="0" x2="50" y2="12"/>
</g>
<g id="Layer_2">
	<polyline class="st1" points="50,100 50,83.33 82,50 50,16.67 50,0 	"/>
	<polyline class="st1" points="50,100 50,83.33 18,50 50,16.67 50,0 	"/>
</g>
</svg>
